<svg width="100" height="100" viewBox="0 0 100 100" xmlns="http://www.w3.org/2000/svg">
  <circle cx="50" cy="50" r="49" stroke="black" stroke-width="2" fill="white"/>
  <circle cx="50" cy="50" r="42" stroke="black" stroke-width="2" fill="white"/>
  <g stroke="black" stroke-width="2" fill="none">
    <path d="M50,44 A 60,60 0 0 1 50,8"/>
    <path d="M55.2,47 A 60,60 0 0 1 86.5,31"/>
    <path d="M55.2,53 A 60,60 0 0 1 86.5,69"/>
    <path d="M50,56 A 60,60 0 0 1 50,92"/>
    <path d="M44.8,53 A 60,60 0 0 1 13.5,69"/>
    <path d="M44.8,47 A 60,60 0 0 1 13.5,31"/>
  </g>
  <polygon points="50,44 55.2,47 55.2,53 50,56 44.8,53 44.8,47" fill="black"/>
</svg>
